<svg xmlns="http://www.w3.org/2000/svg" xmlns:xlink="http://www.w3.org/1999/xlink" viewBox="0 0 299.2 62.9"><defs><clipPath id="a"><rect width="62.9" height="62.94" fill="none"/></clipPath><linearGradient id="b" x1="20.72" y1="18.42" x2="50.98" y2="54.74" gradientUnits="userSpaceOnUse"><stop offset="0"/><stop offset="1" stop-color="#fff"/></linearGradient></defs><title>playlistify-header-logo</title><g style="isolation:isolate"><rect width="62.9" height="62.94" fill="#43bb93"/><g opacity="0.3" style="mix-blend-mode:multiply"><g clip-path="url(#a)"><polygon points="12 36.8 15.6 29.8 19.2 34.8 27.8 15 33.3 32 37.1 25.1 41.8 33.5 47.8 23.7 92.6 78.4 88.4 70.8 84.2 83.5 79.1 71.1 74.6 89.5 69.4 64.8 61.7 81.8 57.2 74.8 53.6 78.4 12 36.8" fill="url(#b)"/></g></g><polygon points="27.8 23.3 20.1 40.2 15.7 33.2 12 36.8 15.6 29.8 19.2 34.8 27.8 15 33.3 32 37.1 25.1 41.8 33.5 47.8 23.7 51 36.8 46.9 29.2 42.6 41.9 37.5 29.5 33 48 27.8 23.3" fill="#f3f3f3"/><path d="M81.5,49.4a1.7,1.7,0,0,1-.5-1.2V24.7a1.7,1.7,0,0,1,1.6-1.6,1.7,1.7,0,0,1,1.2.5,1.6,1.6,0,0,1,.5,1.1v1A8,8,0,0,1,90.4,23a7.7,7.7,0,0,1,4.1,1.1,8.1,8.1,0,0,1,3.3,3.3,10,10,0,0,1,1.2,5,10.7,10.7,0,0,1-1.2,5.1,8.4,8.4,0,0,1-3.3,3.2,7.8,7.8,0,0,1-4.1,1.2,8,8,0,0,1-6.1-2.7v9a1.7,1.7,0,0,1-1.7,1.7A1.6,1.6,0,0,1,81.5,49.4ZM94.1,37.2a6.6,6.6,0,0,0,1.6-4.8,6.4,6.4,0,0,0-1.6-4.7A5.6,5.6,0,0,0,89.9,26a6.7,6.7,0,0,0-3.1.7,8.2,8.2,0,0,0-2.5,2v7.5a7.9,7.9,0,0,0,2.5,1.9,6.7,6.7,0,0,0,3.1.7A5.5,5.5,0,0,0,94.1,37.2Z" fill="#43bb93"/><path d="M104,41.2a1.6,1.6,0,0,1-.5-1.1V16.9a1.7,1.7,0,0,1,1.6-1.6,1.7,1.7,0,0,1,1.2.5,1.6,1.6,0,0,1,.5,1.1V40.1a1.6,1.6,0,0,1-.5,1.1,1.7,1.7,0,0,1-1.2.5A1.6,1.6,0,0,1,104,41.2Z" fill="#43bb93"/><path d="M114.1,41.2a4.6,4.6,0,0,1-2.1-1.8,5.7,5.7,0,0,1-.8-2.9,5.1,5.1,0,0,1,2.1-4.2,10.3,10.3,0,0,1,6.1-1.6h4.3v-.2a4.6,4.6,0,0,0-1.1-3.4,5.4,5.4,0,0,0-3.7-1.1l-2.4.2-2.3.7h-.5a1.8,1.8,0,0,1-.9-.4,1.8,1.8,0,0,1-.4-1,1.3,1.3,0,0,1,1-1.3,14.6,14.6,0,0,1,6.1-1.3,7.9,7.9,0,0,1,4.2,1,6.7,6.7,0,0,1,2.5,2.5A8.5,8.5,0,0,1,127,30V40.1a1.6,1.6,0,0,1-.5,1.1,1.7,1.7,0,0,1-1.2.5,1.7,1.7,0,0,1-1.6-1.6v-.9a8.9,8.9,0,0,1-6.7,2.7A5.9,5.9,0,0,1,114.1,41.2Zm7.2-3a7.5,7.5,0,0,0,2.4-1.9v-3h-3.9c-3.5,0-5.3,1-5.3,2.9a2.4,2.4,0,0,0,.8,2,4,4,0,0,0,2.9.8A5.8,5.8,0,0,0,121.3,38.2Z" fill="#43bb93"/><path d="M135.1,49.4a1.6,1.6,0,0,1-.5-1.1c0-.2.1-.4.1-.6l2.4-5.9-6.7-16.3a2.5,2.5,0,0,1-.2-.7,1.7,1.7,0,0,1,.5-1.2,1.6,1.6,0,0,1,1.1-.5,1.2,1.2,0,0,1,.9.3,1.9,1.9,0,0,1,.6.7l5.5,13.7,5.6-13.6a1.6,1.6,0,0,1,1.5-1.1,1.4,1.4,0,0,1,1.1.5,1.3,1.3,0,0,1,.5,1.2,1.3,1.3,0,0,1-.1.6l-9.7,23.4a1.8,1.8,0,0,1-1.5,1.1A1.4,1.4,0,0,1,135.1,49.4Z" fill="#43bb93"/><path d="M151.7,41.2a1.5,1.5,0,0,1-.4-1.1V16.9a1.5,1.5,0,0,1,.4-1.1,1.7,1.7,0,0,1,1.2-.5,1.7,1.7,0,0,1,1.6,1.6V40.1a1.7,1.7,0,0,1-1.6,1.6A1.7,1.7,0,0,1,151.7,41.2Z" fill="#43bb93"/><path d="M160.4,19.1a1.8,1.8,0,0,1-.6-1.3h0a1.6,1.6,0,0,1,.6-1.3,1.6,1.6,0,0,1,1.3-.6h.2a1.8,1.8,0,0,1,1.3.6,1.9,1.9,0,0,1,.5,1.3h0a2.1,2.1,0,0,1-.5,1.3,2.1,2.1,0,0,1-1.3.5h-.2A1.9,1.9,0,0,1,160.4,19.1Zm.2,22.1a1.6,1.6,0,0,1-.5-1.1V24.8a1.7,1.7,0,0,1,.5-1.2,1.6,1.6,0,0,1,1.1-.5,1.7,1.7,0,0,1,1.7,1.7V40.1a1.6,1.6,0,0,1-.5,1.1,1.7,1.7,0,0,1-1.2.5A1.6,1.6,0,0,1,160.6,41.2Z" fill="#43bb93"/><path d="M168.4,40.3a1.4,1.4,0,0,1-.6-1.2,1.4,1.4,0,0,1,1.4-1.4h.6l2.3.8a10.3,10.3,0,0,0,2.6.3c2.6,0,3.9-.9,3.9-2.6a1.4,1.4,0,0,0-.9-1.2l-2.9-1a26.4,26.4,0,0,1-3.5-1,7.8,7.8,0,0,1-2.4-1.6,4.6,4.6,0,0,1-1-2.9,5.2,5.2,0,0,1,1.8-4.1,8.1,8.1,0,0,1,5.2-1.5,15.4,15.4,0,0,1,5.2.9c.3.1.6.2.7.5a1.3,1.3,0,0,1,.3.8,1.4,1.4,0,0,1-1.4,1.4h-.5a11.8,11.8,0,0,0-4.1-.7,6.6,6.6,0,0,0-3,.7,2.2,2.2,0,0,0-1.1,1.8,1.8,1.8,0,0,0,1,1.6l3.1,1a31.9,31.9,0,0,1,3.5,1,6.9,6.9,0,0,1,2.2,1.6,4.4,4.4,0,0,1,1,3,4.8,4.8,0,0,1-1.8,3.8,7.8,7.8,0,0,1-5.1,1.5A14.2,14.2,0,0,1,168.4,40.3Z" fill="#43bb93"/><path d="M187.1,37.2V26.1h-2.6l-.5-.2a.8.8,0,0,1-.2-.5c0-.2.2-.4.4-.6l4.8-4.7a.9.9,0,0,1,.6-.3c.2,0,.4,0,.5.2a.8.8,0,0,1,.2.5v2.8h4a1.5,1.5,0,0,1,1,.4,1.5,1.5,0,0,1,0,2,1.2,1.2,0,0,1-1,.4h-4V36.9c0,.9.2,1.5.7,1.7a2.7,2.7,0,0,0,1.6.4l1.4-.2h.8a.9.9,0,0,1,.8.4,1,1,0,0,1,.4.9,1.2,1.2,0,0,1-.8,1.2,5.9,5.9,0,0,1-2.9.7C188.8,41.9,187.1,40.3,187.1,37.2Z" fill="#43bb93"/><path d="M199.9,19.1a1.8,1.8,0,0,1-.6-1.3h0a1.6,1.6,0,0,1,.6-1.3,1.4,1.4,0,0,1,1.2-.6h.3a1.4,1.4,0,0,1,1.2.6,1.6,1.6,0,0,1,.6,1.3h0a1.8,1.8,0,0,1-.6,1.3,1.7,1.7,0,0,1-1.2.5h-.3A1.7,1.7,0,0,1,199.9,19.1Zm.2,22.1a1.6,1.6,0,0,1-.5-1.1V24.8a1.7,1.7,0,0,1,.5-1.2,1.6,1.6,0,0,1,1.1-.5,1.7,1.7,0,0,1,1.2.5,1.6,1.6,0,0,1,.4,1.2V40.1a1.5,1.5,0,0,1-.4,1.1,1.8,1.8,0,0,1-1.2.5A1.6,1.6,0,0,1,200.1,41.2Z" fill="#43bb93"/><path d="M210.3,41.2a1.6,1.6,0,0,1-.5-1.1v-14h-2.1a1.1,1.1,0,0,1-.9-.4,1.3,1.3,0,0,1,0-2,1.5,1.5,0,0,1,.9-.4h2.1v-2a7.7,7.7,0,0,1,.8-3.6,5.5,5.5,0,0,1,2-2,5.8,5.8,0,0,1,2.6-.6,8.2,8.2,0,0,1,3.1.7l.6.6a1.4,1.4,0,0,1,.2.7,1.4,1.4,0,0,1-1.3,1.3H216a2.9,2.9,0,0,0-2.2.7,3.4,3.4,0,0,0-.7,2.5v1.9h4.4a1.5,1.5,0,0,1,1,.4,1.4,1.4,0,0,1,0,2,1.2,1.2,0,0,1-1,.4h-4.4v14a1.6,1.6,0,0,1-.5,1.1,1.7,1.7,0,0,1-1.2.5A1.6,1.6,0,0,1,210.3,41.2Z" fill="#43bb93"/><path d="M225.1,49.4a1.6,1.6,0,0,1-.5-1.1c0-.2.1-.4.1-.6l2.4-5.9-6.7-16.3a2.5,2.5,0,0,1-.2-.7,1.7,1.7,0,0,1,.5-1.2,1.6,1.6,0,0,1,1.1-.5,1.2,1.2,0,0,1,.9.3,1.9,1.9,0,0,1,.6.7l5.5,13.7,5.6-13.6a1.6,1.6,0,0,1,1.5-1.1,1.4,1.4,0,0,1,1.1.5,1.3,1.3,0,0,1,.5,1.2,1.3,1.3,0,0,1-.1.6l-9.7,23.4a1.8,1.8,0,0,1-1.5,1.1A1.4,1.4,0,0,1,225.1,49.4Z" fill="#43bb93"/><path d="M240.1,41a1.8,1.8,0,0,1-.6-1.4v-.2a2,2,0,0,1,.6-1.4,1.7,1.7,0,0,1,1.4-.6h.3a1.8,1.8,0,0,1,1.4.6,2,2,0,0,1,.6,1.4v.2a2.1,2.1,0,0,1-2,2h-.3A1.7,1.7,0,0,1,240.1,41Z" fill="#43bb93"/><path d="M249.6,41.2a1.6,1.6,0,0,1-.5-1.1V24.8a1.7,1.7,0,0,1,.5-1.2,1.4,1.4,0,0,1,1.1-.5,1.8,1.8,0,0,1,1.2.5,1.6,1.6,0,0,1,.4,1.2v1.4a10.4,10.4,0,0,1,2.4-2.3,7,7,0,0,1,3.7-.9,5.5,5.5,0,0,1,3.4,1,5.8,5.8,0,0,1,2.1,2.6,7,7,0,0,1,6.5-3.6,5.3,5.3,0,0,1,3.4,1,6,6,0,0,1,1.9,2.5,7.8,7.8,0,0,1,.7,3.3V40.1a1.6,1.6,0,0,1-.5,1.1,1.7,1.7,0,0,1-1.2.5,1.7,1.7,0,0,1-1.6-1.6V30.5a5.7,5.7,0,0,0-.8-3.5,3.3,3.3,0,0,0-2.8-1,4.9,4.9,0,0,0-3,.9,8.7,8.7,0,0,0-2.1,2.5V40.1a1.6,1.6,0,0,1-.5,1.1,1.7,1.7,0,0,1-1.2.5,1.7,1.7,0,0,1-1.6-1.6V30.5a6.5,6.5,0,0,0-.8-3.5,3.4,3.4,0,0,0-2.8-1,4.9,4.9,0,0,0-3,.9,10.9,10.9,0,0,0-2.2,2.5V40.1a1.5,1.5,0,0,1-.4,1.1,1.8,1.8,0,0,1-1.2.5A1.4,1.4,0,0,1,249.6,41.2Z" fill="#43bb93"/><path d="M283.2,39.4a9.4,9.4,0,0,1-2.5-7,10.7,10.7,0,0,1,1-4.7,7.7,7.7,0,0,1,2.8-3.4,8.1,8.1,0,0,1,4.7-1.3,8.5,8.5,0,0,1,4.6,1.2,7.2,7.2,0,0,1,2.9,3.3,9.3,9.3,0,0,1,1,4.5,1.5,1.5,0,0,1-.4,1.1,1.7,1.7,0,0,1-1.2.5H284a5.6,5.6,0,0,0,1.9,3.8,5.9,5.9,0,0,0,4.3,1.4,11.2,11.2,0,0,0,2.7-.3,7.4,7.4,0,0,0,2.2-.8h.6a1.3,1.3,0,0,1,1,.4,1.2,1.2,0,0,1,.4,1c0,.5-.3.9-.9,1.3a15.9,15.9,0,0,1-2.7,1.2,16.9,16.9,0,0,1-3.5.4A9.3,9.3,0,0,1,283.2,39.4Zm11.3-8.5a5.5,5.5,0,0,0-.9-2.9,4.1,4.1,0,0,0-2-1.7,5,5,0,0,0-2.4-.6,4.6,4.6,0,0,0-2.3.6,4.1,4.1,0,0,0-2,1.7,6.6,6.6,0,0,0-.9,2.9Z" fill="#43bb93"/></g></svg>